<svg xmlns="http://www.w3.org/2000/svg" viewBox="0 0 512 512">
  <defs>
    <linearGradient id="bgGrad" x1="0%" y1="0%" x2="100%" y2="100%">
      <stop offset="0%" style="stop-color:#7c3aed"/>
      <stop offset="100%" style="stop-color:#6d28d9"/>
    </linearGradient>
  </defs>
  <rect width="512" height="512" rx="100" fill="url(#bgGrad)"/>
  <g fill="white" transform="translate(256, 256)">
    <!-- Party popper / celebration icon -->
    <path d="M-80,-120 L-40,-80 L-60,-60 L-100,-100 Z" opacity="0.9"/>
    <circle cx="-100" cy="-140" r="15" opacity="0.8"/>
    <circle cx="-140" cy="-100" r="12" opacity="0.7"/>
    <circle cx="-60" cy="-150" r="10" opacity="0.6"/>

    <!-- Main guest list icon -->
    <rect x="-90" y="-60" width="180" height="200" rx="20" fill="white"/>
    <rect x="-70" y="-30" width="100" height="12" rx="6" fill="#7c3aed" opacity="0.3"/>
    <rect x="-70" y="0" width="140" height="8" rx="4" fill="#7c3aed" opacity="0.2"/>
    <rect x="-70" y="30" width="100" height="12" rx="6" fill="#7c3aed" opacity="0.3"/>
    <rect x="-70" y="60" width="140" height="8" rx="4" fill="#7c3aed" opacity="0.2"/>
    <rect x="-70" y="90" width="100" height="12" rx="6" fill="#7c3aed" opacity="0.3"/>

    <!-- Checkmarks -->
    <circle cx="60" cy="-24" r="18" fill="#10b981"/>
    <path d="M50,-24 L57,-17 L72,-32" stroke="white" stroke-width="4" fill="none" stroke-linecap="round" stroke-linejoin="round"/>
    <circle cx="60" cy="36" r="18" fill="#10b981"/>
    <path d="M50,36 L57,43 L72,28" stroke="white" stroke-width="4" fill="none" stroke-linecap="round" stroke-linejoin="round"/>
  </g>
</svg>
